<?xml version="1.0" encoding="UTF-8"?>
<!DOCTYPE svg PUBLIC "-//W3C//DTD SVG 1.1//EN" "http://www.w3.org/Graphics/SVG/1.1/DTD/svg11.dtd">
<svg xmlns="http://www.w3.org/2000/svg" version="1.1" width="1295px" height="508px" style="shape-rendering:geometricPrecision; text-rendering:geometricPrecision; image-rendering:optimizeQuality; fill-rule:evenodd; clip-rule:evenodd" xmlns:xlink="http://www.w3.org/1999/xlink">
<g><path style="opacity:0.997" fill="#000000" d="M 1063.5,-0.5 C 1064.5,-0.5 1065.5,-0.5 1066.5,-0.5C 1074.67,15.1713 1082.84,30.8379 1091,46.5C 1091.67,47.8333 1091.67,49.1667 1091,50.5C 1082.3,59.5355 1073.96,68.8689 1066,78.5C 1062.95,81.8832 1059.62,84.8832 1056,87.5C 1054.39,86.8993 1053.06,85.8993 1052,84.5C 1046.96,77.0677 1041.46,70.0677 1035.5,63.5C 1035.17,62.8333 1034.83,62.1667 1034.5,61.5C 1027.72,52.7861 1021.05,43.9528 1014.5,35C 1030.55,22.6556 1046.88,10.8223 1063.5,-0.5 Z"/></g>
<g><path style="opacity:0.998" fill="#026a42" d="M 707.5,67.5 C 706.597,69.6204 705.263,69.9538 703.5,68.5C 704.234,57.9245 703.068,47.5912 700,37.5C 693.127,33.2984 686.627,28.4651 680.5,23C 681.883,21.7292 682.883,20.2292 683.5,18.5C 684.239,18.631 684.906,18.4643 685.5,18C 686.738,17.31 686.738,16.81 685.5,16.5C 685.5,16.1667 685.5,15.8333 685.5,15.5C 688.648,14.8596 688.981,13.8596 686.5,12.5C 686.75,11.0779 687.583,10.0779 689,9.5C 698.039,14.3629 703.872,21.6962 706.5,31.5C 705.617,32.548 704.95,33.7147 704.5,35C 708.216,45.6419 709.216,56.4752 707.5,67.5 Z"/></g>
<g><path style="opacity:0.295" fill="#bea89d" d="M 686.5,12.5 C 688.981,13.8596 688.648,14.8596 685.5,15.5C 685.557,14.391 685.89,13.391 686.5,12.5 Z"/></g>
<g><path style="opacity:0.427" fill="#bea89d" d="M 685.5,16.5 C 686.738,16.81 686.738,17.31 685.5,18C 684.906,18.4643 684.239,18.631 683.5,18.5C 683.5,17.1667 684.167,16.5 685.5,16.5 Z"/></g>
<g><path style="opacity:0.417" fill="#bea89d" d="M 316.5,30.5 C 315.29,30.0679 314.29,29.4013 313.5,28.5C 315.598,27.0857 316.598,27.7524 316.5,30.5 Z"/></g>
<g><path style="opacity:0.994" fill="#000000" d="M 424.5,121.5 C 424.5,120.833 424.167,120.5 423.5,120.5C 421.52,118.895 419.187,117.728 416.5,117C 406.149,88.4475 396.482,59.6142 387.5,30.5C 387.556,29.263 388.056,28.263 389,27.5C 396.333,34.1667 403.667,40.8333 411,47.5C 415.436,44.6974 419.603,41.5307 423.5,38C 424.759,37.0181 426.092,36.6848 427.5,37C 443.131,52.6226 456.464,69.956 467.5,89C 462.023,92.9758 456.69,97.1425 451.5,101.5C 455.833,110.167 460.167,118.833 464.5,127.5C 464.291,128.086 463.957,128.586 463.5,129C 451.568,126.893 439.735,124.059 428,120.5C 426.744,120.648 425.577,120.982 424.5,121.5 Z"/></g>
<g><path style="opacity:0.991" fill="#056a43" d="M 313.5,28.5 C 314.29,29.4013 315.29,30.0679 316.5,30.5C 316.833,30.5 317.167,30.5 317.5,30.5C 317.5,31.1667 317.833,31.5 318.5,31.5C 319.167,32.1667 319.833,32.8333 320.5,33.5C 319.185,34.8946 319.519,35.8946 321.5,36.5C 313.454,42.7187 307.954,50.7187 305,60.5C 304.075,61.0465 303.242,61.7132 302.5,62.5C 299.975,71.6889 294.309,78.0223 285.5,81.5C 284.167,80.5 284.167,79.5 285.5,78.5C 292.84,75.3224 297.507,69.8224 299.5,62C 298.106,61.044 297.439,59.7106 297.5,58C 299.038,53.2489 299.871,48.4156 300,43.5C 303.625,37.7083 308.125,32.7083 313.5,28.5 Z"/></g>
<g><path style="opacity:0.444" fill="#bea89d" d="M 318.5,31.5 C 317.833,31.5 317.5,31.1667 317.5,30.5C 319.409,29.3207 319.742,29.654 318.5,31.5 Z"/></g>
<g><path style="opacity:0.395" fill="#bea89d" d="M 320.5,33.5 C 322.382,34.221 322.715,35.221 321.5,36.5C 319.519,35.8946 319.185,34.8946 320.5,33.5 Z"/></g>
<g><path style="opacity:0.996" fill="#000000" d="M 285.5,78.5 C 284.167,79.5 284.167,80.5 285.5,81.5C 285.884,89.8308 286.218,98.1641 286.5,106.5C 266.54,99.358 246.874,91.358 227.5,82.5C 227.177,70.2013 227.177,57.868 227.5,45.5C 232.418,46.3622 237.084,48.0289 241.5,50.5C 243.645,48.2681 245.145,45.6014 246,42.5C 262.764,42.0872 277.264,47.5872 289.5,59C 288.197,63.2429 286.697,67.4095 285,71.5C 284.444,73.8848 284.61,76.2181 285.5,78.5 Z"/></g>
<g><path style="opacity:0.423" fill="#bea89d" d="M 1224.5,49.5 C 1222.52,50.2062 1220.85,50.2062 1219.5,49.5C 1221.42,47.1493 1223.08,47.1493 1224.5,49.5 Z"/></g>
<g><path style="opacity:0.981" fill="#056a43" d="M 1219.5,49.5 C 1220.85,50.2062 1222.52,50.2062 1224.5,49.5C 1228.23,61.3558 1226.73,72.3558 1220,82.5C 1217.53,92.4393 1213.69,101.773 1208.5,110.5C 1207.83,110.167 1207.17,109.833 1206.5,109.5C 1211.15,100.224 1214.81,90.5577 1217.5,80.5C 1215.24,78.1099 1214.91,75.4433 1216.5,72.5C 1214.84,65.2905 1213.84,57.9572 1213.5,50.5C 1215.14,50.5198 1216.48,49.8532 1217.5,48.5C 1218.18,48.8627 1218.85,49.1961 1219.5,49.5 Z"/></g>
<g><path style="opacity:1" fill="#056a43" d="M 48.5,58.5 C 50.6841,57.8919 52.6841,58.5586 54.5,60.5C 55.0324,65.4079 56.3657,65.4079 58.5,60.5C 60.0222,61.1909 61.0222,62.3576 61.5,64C 61.1171,71.2552 58.4505,77.4219 53.5,82.5C 54.8353,90.8418 58.502,97.8418 64.5,103.5C 64.3713,105.216 64.038,106.883 63.5,108.5C 59.8784,105.278 56.7118,101.612 54,97.5C 50.6642,89.0949 47.4975,80.7615 44.5,72.5C 45.2891,72.2172 45.9558,71.7172 46.5,71C 44.9632,69.8904 44.2965,68.3904 44.5,66.5C 44.5,66.1667 44.5,65.8333 44.5,65.5C 46.0818,63.4374 47.4151,61.1041 48.5,58.5 Z"/></g>
<g><path style="opacity:0.573" fill="#bea89d" d="M 54.5,60.5 C 55.8333,60.5 57.1667,60.5 58.5,60.5C 56.3657,65.4079 55.0324,65.4079 54.5,60.5 Z"/></g>
<g><path style="opacity:0.997" fill="#000000" d="M 703.5,68.5 C 705.263,69.9538 706.597,69.6204 707.5,67.5C 713.303,64.5958 719.303,62.2625 725.5,60.5C 714.964,88.5794 704.13,116.579 693,144.5C 692.097,145.701 690.931,146.535 689.5,147C 671.339,149.541 653.172,152.041 635,154.5C 633.027,154.691 631.527,154.024 630.5,152.5C 635.77,143.624 640.77,134.624 645.5,125.5C 643.578,121.907 640.911,118.907 637.5,116.5C 651.814,97.6856 668.314,81.019 687,66.5C 690.158,69.0796 693.492,71.4129 697,73.5C 699.757,72.3972 701.924,70.7306 703.5,68.5 Z"/></g>
<g><path style="opacity:0.567" fill="#bea89d" d="M 1034.5,61.5 C 1034.83,62.1667 1035.17,62.8333 1035.5,63.5C 1035.03,64.9063 1034.03,65.573 1032.5,65.5C 1033.83,64.5 1033.83,63.5 1032.5,62.5C 1033.17,62.1667 1033.83,61.8333 1034.5,61.5 Z"/></g>
<g><path style="opacity:0.941" fill="#7e917a" d="M 48.5,58.5 C 47.4151,61.1041 46.0818,63.4374 44.5,65.5C 45.2186,63.2362 45.552,60.9029 45.5,58.5C 46.5,58.5 47.5,58.5 48.5,58.5 Z"/></g>
<g><path style="opacity:1" fill="#136c45" d="M 1032.5,62.5 C 1033.83,63.5 1033.83,64.5 1032.5,65.5C 1032.03,69.5025 1030.03,72.6692 1026.5,75C 1023.69,76.3277 1021.02,77.8277 1018.5,79.5C 1017.5,78.8333 1016.5,78.1667 1015.5,77.5C 1013.69,76.0607 1013.02,74.394 1013.5,72.5C 1013.83,71.8333 1014.17,71.1667 1014.5,70.5C 1019.06,66.4492 1024.23,64.4492 1030,64.5C 1030.71,63.6195 1031.54,62.9528 1032.5,62.5 Z"/></g>
<g><path style="opacity:0.457" fill="#bea89d" d="M 44.5,66.5 C 44.2965,68.3904 44.9632,69.8904 46.5,71C 45.9558,71.7172 45.2891,72.2172 44.5,72.5C 43.4271,70.3469 43.4271,68.3469 44.5,66.5 Z"/></g>
<g><path style="opacity:0.998" fill="#000000" d="M 826.5,125.5 C 825.609,124.89 824.609,124.557 823.5,124.5C 814.14,119.871 804.473,115.704 794.5,112C 792.187,111.359 790.52,110.026 789.5,108C 797.509,99.658 805.842,91.658 814.5,84C 817.038,81.558 819.872,81.058 823,82.5C 825.161,77.5076 827.828,72.8409 831,68.5C 848.828,71.4953 863.995,79.3287 876.5,92C 875.357,95.1005 874.024,98.1005 872.5,101C 875.352,102.591 878.352,103.924 881.5,105C 882.357,105.689 883.023,106.522 883.5,107.5C 874.14,117.527 864.473,127.194 854.5,136.5C 845.15,132.823 835.817,129.157 826.5,125.5 Z"/></g>
<g><path style="opacity:0.294" fill="#bea89d" d="M 1014.5,70.5 C 1014.17,71.1667 1013.83,71.8333 1013.5,72.5C 1012.24,71.3774 1012.58,70.7107 1014.5,70.5 Z"/></g>
<g><path style="opacity:0.997" fill="#000000" d="M 63.5,108.5 C 64.038,106.883 64.3713,105.216 64.5,103.5C 67.262,95.3692 69.762,87.0359 72,78.5C 72.5232,76.7774 73.5232,75.444 75,74.5C 84.3138,79.3228 93.3138,84.6561 102,90.5C 102.538,94.4426 102.038,98.2759 100.5,102C 100.645,102.772 100.978,103.439 101.5,104C 103.519,104.45 105.352,105.283 107,106.5C 109.297,110.889 110.463,115.556 110.5,120.5C 109.192,133.372 106.859,146.039 103.5,158.5C 98.7984,158.05 94.1317,157.383 89.5,156.5C 89.722,159.39 89.0553,162.057 87.5,164.5C 74.5092,165.417 61.5092,165.417 48.5,164.5C 52.6836,145.616 57.6836,126.949 63.5,108.5 Z"/></g>
<g><path style="opacity:0.144" fill="#bea89d" d="M 1015.5,77.5 C 1016.5,78.1667 1017.5,78.8333 1018.5,79.5C 1016.67,80.7181 1015.67,80.0514 1015.5,77.5 Z"/></g>
<g><path style="opacity:0.996" fill="#000000" d="M 1206.5,109.5 C 1207.17,109.833 1207.83,110.167 1208.5,110.5C 1207.76,112.305 1206.76,113.971 1205.5,115.5C 1213.33,127.167 1221.17,138.833 1229,150.5C 1230.01,152.025 1230.51,153.692 1230.5,155.5C 1216.53,157.496 1202.53,159.329 1188.5,161C 1183.3,164.366 1177.96,167.532 1172.5,170.5C 1157.58,157.834 1147.58,142 1142.5,123C 1142.83,122.167 1143.17,121.333 1143.5,120.5C 1146.67,118.748 1149.67,116.748 1152.5,114.5C 1148.79,109.572 1145.45,104.405 1142.5,99C 1142.83,98.5 1143.17,98 1143.5,97.5C 1157.49,94.502 1171.49,91.502 1185.5,88.5C 1187.03,88.5288 1188.2,89.1955 1189,90.5C 1193.61,98.1074 1198.61,105.441 1204,112.5C 1204.38,111.058 1205.21,110.058 1206.5,109.5 Z"/></g>
<g><path style="opacity:0.98" fill="#086b43" d="M 423.5,120.5 C 424.167,120.5 424.5,120.833 424.5,121.5C 422.955,126.772 424.122,131.439 428,135.5C 432.961,140.252 436.794,145.585 439.5,151.5C 438.97,154.898 438.137,158.232 437,161.5C 434.278,164.444 431.111,166.777 427.5,168.5C 426.607,171.084 426.274,173.751 426.5,176.5C 425.603,177.598 424.77,177.598 424,176.5C 423.536,177.094 423.369,177.761 423.5,178.5C 422.833,178.5 422.5,178.833 422.5,179.5C 421.751,180.531 421.085,181.698 420.5,183C 419.216,183.684 418.049,183.517 417,182.5C 412.137,168.561 416.637,159.227 430.5,154.5C 431.305,151.696 431.972,148.862 432.5,146C 428.292,140.787 424.459,135.287 421,129.5C 419.93,125.858 420.764,122.858 423.5,120.5 Z"/></g>
<g><path style="opacity:0.989" fill="#056a42" d="M 823.5,124.5 C 824.609,124.557 825.609,124.89 826.5,125.5C 823.744,128.389 820.411,130.556 816.5,132C 815.833,133.333 815.167,134.667 814.5,136C 809.918,138.459 805.251,140.626 800.5,142.5C 799.416,142.315 798.416,141.982 797.5,141.5C 796.673,140.561 796.006,140.895 795.5,142.5C 792.728,143.767 790.061,143.767 787.5,142.5C 787.167,141.5 786.5,140.833 785.5,140.5C 785.484,138.371 786.151,136.538 787.5,135C 786.542,133.853 786.875,132.853 788.5,132C 793.024,131.295 797.524,130.462 802,129.5C 805.161,130.897 808.161,130.563 811,128.5C 812.144,128.911 813.311,129.244 814.5,129.5C 817.771,128.208 820.771,126.542 823.5,124.5 Z"/></g>
<g><path style="opacity:0.237" fill="#bea89d" d="M 785.5,140.5 C 786.5,140.833 787.167,141.5 787.5,142.5C 786.167,142.5 785.5,141.833 785.5,140.5 Z"/></g>
<g><path style="opacity:0.409" fill="#bea89d" d="M 797.5,141.5 C 797.158,142.338 796.492,142.672 795.5,142.5C 796.006,140.895 796.673,140.561 797.5,141.5 Z"/></g>
<g><path style="opacity:0.973" fill="#096a43" d="M 545.5,144.5 C 546.899,145.89 548.566,146.89 550.5,147.5C 553.297,154.725 552.797,161.725 549,168.5C 548.503,171.146 548.336,173.813 548.5,176.5C 547.391,176.443 546.391,176.11 545.5,175.5C 544.667,173.248 544.667,171.081 545.5,169C 541.197,162.577 539.197,155.41 539.5,147.5C 540.5,147.167 541.167,146.5 541.5,145.5C 542.705,143.862 544.038,143.529 545.5,144.5 Z"/></g>
<g><path style="opacity:0.55" fill="#bea89d" d="M 550.5,147.5 C 548.566,146.89 546.899,145.89 545.5,144.5C 548.676,142.727 550.343,143.727 550.5,147.5 Z"/></g>
<g><path style="opacity:0.61" fill="#bea89d" d="M 904.5,145.5 C 903.209,146.473 903.209,147.473 904.5,148.5C 902.603,149.652 900.936,149.319 899.5,147.5C 900.715,145.212 902.381,144.545 904.5,145.5 Z"/></g>
<g><path style="opacity:0.474" fill="#bea89d" d="M 541.5,145.5 C 541.167,146.5 540.5,147.167 539.5,147.5C 538.957,147.44 538.624,147.107 538.5,146.5C 539.325,145.614 540.325,145.281 541.5,145.5 Z"/></g>
<g><path style="opacity:0.35" fill="#bea89d" d="M 898.5,147.5 C 898.167,148.5 897.5,149.167 896.5,149.5C 896.5,148.167 897.167,147.5 898.5,147.5 Z"/></g>
<g><path style="opacity:1" fill="#046a42" d="M 904.5,145.5 C 905.5,145.833 906.167,146.5 906.5,147.5C 905.441,149.07 905.941,150.403 908,151.5C 908.717,150.956 909.217,150.289 909.5,149.5C 914.756,152.257 919.256,155.924 923,160.5C 923.617,161.449 923.451,162.282 922.5,163C 929.297,168.815 937.13,172.315 946,173.5C 949.886,173.069 953.72,172.403 957.5,171.5C 958.167,172.5 958.833,173.5 959.5,174.5C 957.854,175.083 955.854,175.917 953.5,177C 948.5,177.667 943.5,177.667 938.5,177C 932.04,174.271 926.04,170.771 920.5,166.5C 909.594,167.048 900.928,162.714 894.5,153.5C 894.833,152.833 895.167,152.167 895.5,151.5C 895.833,150.833 896.167,150.167 896.5,149.5C 897.5,149.167 898.167,148.5 898.5,147.5C 898.833,147.5 899.167,147.5 899.5,147.5C 900.936,149.319 902.603,149.652 904.5,148.5C 903.209,147.473 903.209,146.473 904.5,145.5 Z"/></g>
<g><path style="opacity:0.725" fill="#bea89d" d="M 906.5,147.5 C 907.29,148.401 908.29,149.068 909.5,149.5C 909.217,150.289 908.717,150.956 908,151.5C 905.941,150.403 905.441,149.07 906.5,147.5 Z"/></g>
<g><path style="opacity:0.447" fill="#bea89d" d="M 895.5,151.5 C 895.167,152.167 894.833,152.833 894.5,153.5C 893.243,152.377 893.576,151.711 895.5,151.5 Z"/></g>
<g><path style="opacity:0.996" fill="#010100" d="M 959.5,174.5 C 958.833,173.5 958.167,172.5 957.5,171.5C 952.909,166.242 947.909,161.242 942.5,156.5C 941.614,155.675 941.281,154.675 941.5,153.5C 949.928,155.191 958.261,157.357 966.5,160C 989.57,166.912 1012.4,174.412 1035,182.5C 1041.11,198.392 1046.95,214.392 1052.5,230.5C 1051.65,232.283 1050.32,232.783 1048.5,232C 1039.88,227.737 1031.21,223.57 1022.5,219.5C 1019.52,223.981 1016.02,227.981 1012,231.5C 990.261,220.696 971.261,206.696 955,189.5C 958.219,185.948 961.052,182.115 963.5,178C 962.295,176.624 960.962,175.458 959.5,174.5 Z"/></g>
<g><path style="opacity:0.999" fill="#000000" d="M 545.5,175.5 C 546.391,176.11 547.391,176.443 548.5,176.5C 559.081,184.803 570.081,192.636 581.5,200C 582.804,200.804 583.471,201.971 583.5,203.5C 571.924,217.917 559.757,231.917 547,245.5C 543.953,248.883 540.62,251.883 537,254.5C 518.694,237.36 500.86,219.694 483.5,201.5C 484.305,199.528 485.639,198.028 487.5,197C 502.42,186.957 517.253,176.79 532,166.5C 536.787,169.138 541.287,172.138 545.5,175.5 Z"/></g>
<g><path style="opacity:0.225" fill="#bea89d" d="M 181.5,173.5 C 180.167,174.5 178.833,175.5 177.5,176.5C 176.596,175.791 176.263,174.791 176.5,173.5C 178.398,172.904 180.065,172.904 181.5,173.5 Z"/></g>
<g><path style="opacity:0.362" fill="#bea89d" d="M 184.5,172.5 C 183.994,174.105 183.327,174.439 182.5,173.5C 182.842,172.662 183.508,172.328 184.5,172.5 Z"/></g>
<g><path style="opacity:0.967" fill="#076b43" d="M 184.5,172.5 C 186.026,173.105 187.026,174.271 187.5,176C 187.559,184.716 184.059,191.55 177,196.5C 172.965,202.758 172.632,209.092 176,215.5C 179.044,218.051 182.211,220.384 185.5,222.5C 185.167,223.167 184.833,223.833 184.5,224.5C 178.928,221.765 174.428,217.765 171,212.5C 169.716,206.135 170.883,200.302 174.5,195C 173.449,192.312 174.116,189.979 176.5,188C 175.344,184.084 175.677,180.25 177.5,176.5C 178.833,175.5 180.167,174.5 181.5,173.5C 181.833,173.5 182.167,173.5 182.5,173.5C 183.327,174.439 183.994,174.105 184.5,172.5 Z"/></g>
<g><path style="opacity:0.399" fill="#bea89d" d="M 426.5,176.5 C 427.043,176.56 427.376,176.893 427.5,177.5C 426.311,178.429 424.978,178.762 423.5,178.5C 423.369,177.761 423.536,177.094 424,176.5C 424.77,177.598 425.603,177.598 426.5,176.5 Z"/></g>
<g><path style="opacity:0.543" fill="#bea89d" d="M 423.5,178.5 C 424.562,179.575 424.562,180.575 423.5,181.5C 422.702,181.043 422.369,180.376 422.5,179.5C 422.5,178.833 422.833,178.5 423.5,178.5 Z"/></g>
<g><path style="opacity:0.997" fill="#000000" d="M 184.5,224.5 C 184.833,223.833 185.167,223.167 185.5,222.5C 194.178,213.318 202.344,203.651 210,193.5C 212.205,190.96 214.705,188.793 217.5,187C 239.155,184.649 260.822,182.483 282.5,180.5C 282.703,182.39 282.037,183.89 280.5,185C 273.329,190.675 266.329,196.508 259.5,202.5C 262.535,207.708 265.368,213.041 268,218.5C 268.749,219.635 268.583,220.635 267.5,221.5C 249.711,234.733 230.378,245.4 209.5,253.5C 205.928,249.369 203.094,244.702 201,239.5C 200.255,238.01 199.088,237.01 197.5,236.5C 188.158,239.673 178.825,242.506 169.5,245C 168.549,244.282 168.383,243.449 169,242.5C 174.376,236.628 179.543,230.628 184.5,224.5 Z"/></g>
<g><path style="opacity:0.996" fill="#010000" d="M 767.5,231.5 C 767.167,230.833 766.833,230.167 766.5,229.5C 766.783,228.711 767.283,228.044 768,227.5C 768.637,217.837 769.137,208.17 769.5,198.5C 770.552,198.351 771.552,198.517 772.5,199C 777.667,204.167 782.833,209.333 788,214.5C 792.333,211.5 796.667,208.5 801,205.5C 812.915,218.583 823.081,232.917 831.5,248.5C 827.167,251.833 822.833,255.167 818.5,258.5C 822.106,265.379 825.439,272.379 828.5,279.5C 828,279.833 827.5,280.167 827,280.5C 806.996,266.661 787.329,252.328 768,237.5C 767.505,235.527 767.338,233.527 767.5,231.5 Z"/></g>
<g><path style="opacity:0.993" fill="#076b43" d="M 766.5,229.5 C 766.833,230.167 767.167,230.833 767.5,231.5C 765.929,232.197 764.429,232.53 763,232.5C 761.581,231.54 760.081,230.707 758.5,230C 756,226.167 753.5,222.333 751,218.5C 749.077,217.684 747.077,217.017 745,216.5C 742.9,218.6 740.733,220.767 738.5,223C 731.816,226.657 725.816,225.824 720.5,220.5C 721.506,220.062 721.506,219.396 720.5,218.5C 721.71,218.068 722.71,217.401 723.5,216.5C 724.167,216.5 724.5,216.167 724.5,215.5C 725.167,215.5 725.5,215.167 725.5,214.5C 727.258,214.877 728.925,215.544 730.5,216.5C 733.304,214.862 735.971,213.029 738.5,211C 742.701,210.078 746.701,210.578 750.5,212.5C 753.187,218.355 756.854,223.522 761.5,228C 763.025,229.009 764.692,229.509 766.5,229.5 Z"/></g>
<g><path style="opacity:0.289" fill="#bea89d" d="M 725.5,214.5 C 725.5,215.167 725.167,215.5 724.5,215.5C 724.167,215.5 723.833,215.5 723.5,215.5C 724.006,213.895 724.673,213.561 725.5,214.5 Z"/></g>
<g><path style="opacity:0.452" fill="#bea89d" d="M 723.5,215.5 C 723.5,215.833 723.5,216.167 723.5,216.5C 722.71,217.401 721.71,218.068 720.5,218.5C 720.5,216.5 721.5,215.5 723.5,215.5 Z"/></g>
<g><path style="opacity:0.524" fill="#bea89d" d="M 720.5,218.5 C 721.506,219.396 721.506,220.062 720.5,220.5C 718.775,220.157 718.275,219.157 719,217.5C 719.383,218.056 719.883,218.389 720.5,218.5 Z"/></g>
<g><path style="opacity:0.999" fill="#006a42" d="M 1221.5,332.5 C 1227.91,331.138 1234.25,331.472 1240.5,333.5C 1239.01,338.484 1238.01,343.651 1237.5,349C 1239.23,363.107 1240.39,377.274 1241,391.5C 1247.23,393.43 1253.4,395.43 1259.5,397.5C 1255.33,412.828 1251.17,428.161 1247,443.5C 1239.52,464.768 1232.36,486.102 1225.5,507.5C 938.5,507.5 651.5,507.5 364.5,507.5C 362.163,504.319 359.996,500.986 358,497.5C 356.801,500.726 356.301,504.059 356.5,507.5C 258.167,507.5 159.833,507.5 61.5,507.5C 62.6086,505.446 63.6086,503.279 64.5,501C 63.4315,492.542 62.7648,484.042 62.5,475.5C 53.0084,472.502 43.675,469.002 34.5,465C 27.5111,460.346 22.3445,454.179 19,446.5C 14.2382,428.881 9.07157,411.381 3.5,394C 7.97135,390.927 12.638,388.094 17.5,385.5C 19.5513,380.14 21.5513,374.807 23.5,369.5C 22.6667,369.167 21.8333,368.833 21,368.5C 15.4902,369.446 9.99016,370.446 4.5,371.5C 3.5,371.167 2.5,370.833 1.5,370.5C 1.00569,368.974 0.339027,367.641 -0.5,366.5C -0.5,363.5 -0.5,360.5 -0.5,357.5C 7.75181,356.395 16.0851,355.561 24.5,355C 27.9007,353.2 31.4007,352.033 35,351.5C 36.2613,351.759 37.2613,352.426 38,353.5C 39.147,351.269 40.147,348.935 41,346.5C 42.0113,345.663 43.1779,345.33 44.5,345.5C 44.1924,347.924 44.5258,350.257 45.5,352.5C 53.4141,350.178 61.4141,349.178 69.5,349.5C 71.2543,353.763 71.5876,358.096 70.5,362.5C 60.5131,363.641 50.5131,364.807 40.5,366C 39.4381,368.791 38.1048,371.457 36.5,374C 37.7014,374.903 38.5348,376.069 39,377.5C 42.6011,389.637 46.6011,401.637 51,413.5C 52.6627,417.496 54.8294,421.163 57.5,424.5C 62.4847,427.328 67.818,428.995 73.5,429.5C 75.28,427.556 77.4467,426.223 80,425.5C 82.384,426.719 84.7174,426.719 87,425.5C 85.6073,416.289 85.2739,406.955 86,397.5C 90.725,392.282 95.225,386.948 99.5,381.5C 101.575,380.238 103.575,380.405 105.5,382C 109.053,386.446 113.386,389.946 118.5,392.5C 118.842,393.338 119.508,393.672 120.5,393.5C 121.338,393.842 121.672,394.508 121.5,395.5C 121.12,397.698 121.787,399.365 123.5,400.5C 123.425,410.303 120.759,419.303 115.5,427.5C 116.333,427.833 117.167,428.167 118,428.5C 120.079,427.597 122.246,426.931 124.5,426.5C 129.481,427.662 134.481,428.662 139.5,429.5C 136.318,414.771 132.818,400.104 129,385.5C 126.608,370.813 124.108,356.146 121.5,341.5C 121.818,340.353 122.484,339.519 123.5,339C 127.07,337.69 130.737,336.857 134.5,336.5C 135.007,327.779 136.007,319.113 137.5,310.5C 136.393,308.119 135.727,305.619 135.5,303C 136.722,299.5 136.722,296 135.5,292.5C 136.552,292.649 137.552,292.483 138.5,292C 136.321,291.558 135.655,290.558 136.5,289C 139.347,288.056 141.847,288.556 144,290.5C 144.313,287.405 143.813,284.405 142.5,281.5C 143.348,279.717 144.681,279.217 146.5,280C 147.67,282.185 148.836,284.351 150,286.5C 151.02,285.109 151.853,283.609 152.5,282C 153.793,281.51 155.127,281.343 156.5,281.5C 158.106,291.195 156.273,300.195 151,308.5C 150.293,314.857 150.46,321.19 151.5,327.5C 152.771,329.742 153.937,332.075 155,334.5C 159.177,350.877 163.511,367.21 168,383.5C 170.345,386.177 173.012,388.51 176,390.5C 175.833,387.174 174.333,384.507 171.5,382.5C 171.833,381.833 172.167,381.167 172.5,380.5C 171.399,378.358 170.399,376.192 169.5,374C 169.946,361.05 176.613,353.55 189.5,351.5C 207.592,354.442 214.092,364.775 209,382.5C 207.581,384.336 206.414,386.336 205.5,388.5C 206.242,389.287 207.075,389.953 208,390.5C 215.335,386.668 222.335,382.335 229,377.5C 239.248,362.672 249.248,347.672 259,332.5C 260.135,332.273 261.302,331.94 262.5,331.5C 266.44,324.679 268.774,317.345 269.5,309.5C 267.941,305.333 268.774,301.666 272,298.5C 275.088,294.711 278.921,292.044 283.5,290.5C 285.122,292.854 286.622,292.854 288,290.5C 289.158,290.998 289.991,291.831 290.5,293C 288.481,295.351 286.148,297.351 283.5,299C 286.55,299.679 289.55,300.512 292.5,301.5C 293.462,303.883 292.462,304.883 289.5,304.5C 289.675,307.329 288.342,308.996 285.5,309.5C 284.787,311.776 284.287,314.109 284,316.5C 282.171,318.156 280.837,320.156 280,322.5C 278.967,328.297 277.467,333.964 275.5,339.5C 279.5,341.833 283.5,344.167 287.5,346.5C 276.82,372.2 263.82,396.533 248.5,419.5C 253.456,420.494 258.456,420.827 263.5,420.5C 263.034,418.799 263.034,417.299 263.5,416C 268.986,415.073 274.486,414.24 280,413.5C 284.444,415.005 288.61,416.839 292.5,419C 290.343,415.844 287.843,413.011 285,410.5C 283.93,407.124 282.764,403.79 281.5,400.5C 281.68,399.446 282.013,398.446 282.5,397.5C 278.379,385.702 281.712,376.535 292.5,370C 303.422,365.369 314.089,366.036 324.5,372C 327.043,373.382 329.043,375.215 330.5,377.5C 329.833,377.5 329.5,377.833 329.5,378.5C 327.83,378.249 326.33,377.582 325,376.5C 324.975,379.97 326.809,381.636 330.5,381.5C 330.842,382.338 331.508,382.672 332.5,382.5C 334.807,383.653 337.14,384.82 339.5,386C 340.833,388.333 342.167,390.667 343.5,393C 345.65,394.411 347.984,395.245 350.5,395.5C 350.833,396.167 351.167,396.833 351.5,397.5C 348.519,398.552 345.519,398.719 342.5,398C 344.451,399.734 345.451,401.901 345.5,404.5C 344.833,404.833 344.167,405.167 343.5,405.5C 343.5,404.833 343.167,404.5 342.5,404.5C 341.471,400.985 339.138,399.485 335.5,400C 336.71,401.039 337.71,402.206 338.5,403.5C 337.833,403.5 337.5,403.833 337.5,404.5C 335.83,404.249 334.33,403.582 333,402.5C 331.954,404.09 330.787,405.59 329.5,407C 332.021,406.27 334.687,405.77 337.5,405.5C 338.959,405.433 340.292,405.766 341.5,406.5C 341.5,407.833 341.5,409.167 341.5,410.5C 345.273,411.178 348.106,409.844 350,406.5C 361,391.167 372,375.833 383,360.5C 384.356,359.62 385.856,359.286 387.5,359.5C 385.392,354.821 382.392,350.655 378.5,347C 377.207,346.51 375.873,346.343 374.5,346.5C 374.33,345.178 374.663,344.011 375.5,343C 379.18,341.973 382.347,342.806 385,345.5C 385.333,345.167 385.667,344.833 386,344.5C 386.333,338.5 386.667,332.5 387,326.5C 388.011,325.663 389.178,325.33 390.5,325.5C 390.125,328.397 390.625,331.063 392,333.5C 392.667,330.167 393.333,326.833 394,323.5C 395.635,322.151 397.135,322.318 398.5,324C 397.222,327.055 396.722,330.222 397,333.5C 397.73,329.608 399.397,326.275 402,323.5C 402.944,324.263 403.444,325.263 403.5,326.5C 402.669,328.473 402.502,330.473 403,332.5C 403.589,330.137 405.089,329.137 407.5,329.5C 404.373,338.049 401.539,346.715 399,355.5C 398.5,358.5 398,361.5 397.5,364.5C 400.5,368.816 404.5,372.15 409.5,374.5C 410.216,373.689 411.05,373.022 412,372.5C 416.95,371.554 421.783,370.221 426.5,368.5C 428.417,361.69 428.75,354.857 427.5,348C 428.796,343.227 429.963,338.394 431,333.5C 431.689,332.643 432.522,331.977 433.5,331.5C 436.5,331.5 439.5,331.5 442.5,331.5C 457.092,336.533 458.425,344.366 446.5,355C 445.552,355.483 444.552,355.649 443.5,355.5C 443.335,359.182 443.501,362.848 444,366.5C 450.345,392.881 456.845,419.214 463.5,445.5C 467.704,447.199 471.204,449.866 474,453.5C 474.667,451.167 474.667,448.833 474,446.5C 472.434,447.061 471.101,446.394 470,444.5C 468.675,440.572 468.342,436.572 469,432.5C 470.079,430.606 471.413,430.273 473,431.5C 472.913,418.601 479.079,410.768 491.5,408C 500.995,407.054 509.162,409.887 516,416.5C 520.43,423.256 520.596,430.089 516.5,437C 517.448,437.483 518.448,437.649 519.5,437.5C 519.455,444.257 516.788,449.59 511.5,453.5C 510.826,455.517 509.659,457.183 508,458.5C 507.018,459.759 506.685,461.092 507,462.5C 510.546,465.045 513.379,468.212 515.5,472C 518.172,472.834 520.839,473.668 523.5,474.5C 524.84,455.835 525.674,437.169 526,418.5C 525.529,416.754 524.862,415.087 524,413.5C 511.215,399.917 499.882,385.25 490,369.5C 481.77,359.608 473.936,349.441 466.5,339C 472.648,334.86 478.815,330.693 485,326.5C 484.655,315.464 481.488,305.298 475.5,296C 465.108,296.185 454.774,296.519 444.5,297C 443.527,291.593 443.193,286.093 443.5,280.5C 453.354,280.288 463.187,280.621 473,281.5C 476.684,281.175 480.017,279.842 483,277.5C 485.109,277.566 487.275,277.899 489.5,278.5C 490.5,277.833 491.5,277.167 492.5,276.5C 494.555,278.555 496.888,280.221 499.5,281.5C 507.364,280.848 515.197,280.182 523,279.5C 524.978,282.124 525.812,285.124 525.5,288.5C 525.812,291.876 524.978,294.876 523,297.5C 514.71,296.805 506.377,296.138 498,295.5C 496.739,295.759 495.739,296.426 495,297.5C 494.315,306.467 497.315,313.8 504,319.5C 518.344,340.188 533.178,360.521 548.5,380.5C 553.151,380.982 556.151,383.482 557.5,388C 558.5,388.667 559.5,388.667 560.5,388C 552.044,379.054 549.711,368.72 553.5,357C 553.095,351.652 552.428,346.486 551.5,341.5C 551.5,340.833 551.167,340.5 550.5,340.5C 551.524,336.638 553.857,333.805 557.5,332C 565.6,328.326 573.933,327.659 582.5,330C 593.982,336.265 597.982,345.765 594.5,358.5C 596.743,359.412 597.743,361.078 597.5,363.5C 596.705,367.954 594.371,371.287 590.5,373.5C 589.34,377.459 589.173,381.459 590,385.5C 590.615,387.116 591.615,388.449 593,389.5C 599.288,384.965 605.788,380.798 612.5,377C 626.833,364 641.167,351 655.5,338C 663.378,329.124 670.878,319.957 678,310.5C 678.642,308.238 679.475,306.071 680.5,304C 677.695,298.845 676.862,293.345 678,287.5C 678.653,284.193 680.319,281.527 683,279.5C 687.828,281.44 692.328,283.94 696.5,287C 699.07,289.067 701.07,291.567 702.5,294.5C 699.403,302.106 695.237,309.106 690,315.5C 687.007,322.155 683.507,328.488 679.5,334.5C 683.125,337.623 686.625,340.956 690,344.5C 692.809,340.39 695.975,336.557 699.5,333C 700.448,332.517 701.448,332.351 702.5,332.5C 702.351,333.552 702.517,334.552 703,335.5C 706.059,332.847 708.559,333.347 710.5,337C 709.09,339.818 707.423,342.485 705.5,345C 707.999,343.724 710.666,342.558 713.5,341.5C 713.451,344.099 712.451,346.266 710.5,348C 712.5,348 714.5,348 716.5,348C 717.451,348.718 717.617,349.551 717,350.5C 711.964,354.101 706.464,356.768 700.5,358.5C 693.696,368.109 689.696,378.776 688.5,390.5C 690.288,390.215 691.955,390.548 693.5,391.5C 691.648,404.715 690.315,417.881 689.5,431C 690.761,436.089 693.428,440.256 697.5,443.5C 699.64,442.894 701.807,443.227 704,444.5C 704.837,438.313 702.837,433.313 698,429.5C 697.727,427.899 697.227,426.399 696.5,425C 696.737,420.932 696.903,416.766 697,412.5C 699.554,409.64 701.221,406.307 702,402.5C 710.27,394.737 719.437,393.57 729.5,399C 731.705,400.706 734.038,402.206 736.5,403.5C 737.922,405.787 738.589,408.287 738.5,411C 737.538,416.813 736.704,422.646 736,428.5C 733.813,434.198 731.647,439.865 729.5,445.5C 730.873,445.657 732.207,445.49 733.5,445C 736.631,440.867 740.131,437.034 744,433.5C 745.127,426.955 746.96,420.621 749.5,414.5C 750.098,395.985 745.932,378.652 737,362.5C 732.514,357.003 727.18,352.669 721,349.5C 720.508,348.451 720.674,347.451 721.5,346.5C 719.342,343.852 718.008,340.852 717.5,337.5C 720.263,337.744 722.429,339.077 724,341.5C 723.862,339.51 723.362,337.51 722.5,335.5C 722.556,334.263 723.056,333.263 724,332.5C 726.813,335.446 729.146,338.779 731,342.5C 731.215,339.197 731.382,336.03 731.5,333C 732.5,332.333 733.5,332.333 734.5,333C 735.147,334.609 735.98,336.109 737,337.5C 737.853,335.875 738.853,335.542 740,336.5C 740.743,343.41 743.41,349.41 748,354.5C 748.822,356.788 749.489,359.122 750,361.5C 755.524,370.547 760.524,379.88 765,389.5C 769.298,391.249 773.798,392.415 778.5,393C 779.798,395.14 780.465,394.974 780.5,392.5C 778.066,380.563 776.066,368.563 774.5,356.5C 779.186,355.963 783.853,355.296 788.5,354.5C 788.157,346.941 786.491,339.774 783.5,333C 775.621,335.004 767.788,337.504 760,340.5C 756.711,336.478 754.878,331.812 754.5,326.5C 761.898,324.98 769.231,323.146 776.5,321C 778.065,317.581 780.732,315.581 784.5,315C 789.167,314.667 793.833,314.333 798.5,314C 805.613,311.361 812.78,308.861 820,306.5C 824.058,310.153 825.891,314.82 825.5,320.5C 817.167,322.5 808.833,324.5 800.5,326.5C 800.838,329.157 800.171,331.49 798.5,333.5C 800.833,338.833 803.167,344.167 805.5,349.5C 806.689,350.429 808.022,350.762 809.5,350.5C 810.77,356.808 812.936,362.808 816,368.5C 817.512,377.703 819.845,386.703 823,395.5C 826.479,398.65 829.646,402.15 832.5,406C 833.5,406.5 834.5,407 835.5,407.5C 836.17,400.995 838.836,395.495 843.5,391C 848.958,387.521 854.791,385.021 861,383.5C 872.366,383.707 880.7,388.707 886,398.5C 883.895,385.908 881.062,373.408 877.5,361C 881.601,357.864 886.101,355.364 891,353.5C 891.974,340.427 893.474,327.427 895.5,314.5C 894.009,309.794 895.175,305.794 899,302.5C 900.03,298.227 900.697,293.894 901,289.5C 903.699,286.958 906.699,286.291 910,287.5C 911.91,283.343 913.744,279.176 915.5,275C 917.353,274.449 918.687,275.115 919.5,277C 918.446,278.388 918.28,279.888 919,281.5C 920.11,279.963 921.61,279.297 923.5,279.5C 923.186,282.947 922.352,286.28 921,289.5C 909.22,305.439 906.054,323.106 911.5,342.5C 912.628,343.262 913.795,343.929 915,344.5C 921.595,368.285 928.595,391.952 936,415.5C 937.333,416.833 938.667,418.167 940,419.5C 942.207,416.922 944.04,414.089 945.5,411C 944.297,404.129 947.297,400.129 954.5,399C 963.75,389.268 974.583,386.768 987,391.5C 984.618,376.971 981.118,362.638 976.5,348.5C 983.55,346.654 990.55,344.654 997.5,342.5C 998.569,339.461 999.735,336.461 1001,333.5C 1002.33,332.833 1003.67,332.167 1005,331.5C 1007,328.167 1009,324.833 1011,321.5C 1011.87,313.747 1012.54,306.08 1013,298.5C 1014.11,296.963 1015.61,296.297 1017.5,296.5C 1017.34,299.518 1017.5,302.518 1018,305.5C 1018.26,301.75 1018.93,298.084 1020,294.5C 1020.72,293.941 1021.56,293.608 1022.5,293.5C 1023.96,294.39 1025.29,294.39 1026.5,293.5C 1027.48,293.977 1028.31,294.643 1029,295.5C 1029.33,299.167 1029.67,302.833 1030,306.5C 1030.92,303.222 1032.09,300.055 1033.5,297C 1036.93,296.362 1038.26,297.862 1037.5,301.5C 1039.63,301.147 1040.97,301.98 1041.5,304C 1040.28,306.368 1039.45,308.868 1039,311.5C 1036.33,315.5 1033,318.833 1029,321.5C 1026.9,326.865 1024.4,332.032 1021.5,337C 1023.31,350.926 1024.14,365.093 1024,379.5C 1027.04,382.247 1029.04,385.58 1030,389.5C 1033.77,391.216 1036.27,394.049 1037.5,398C 1043.77,398.968 1049.77,400.802 1055.5,403.5C 1055.83,403.167 1056.17,402.833 1056.5,402.5C 1053.83,399.315 1052.83,395.815 1053.5,392C 1050.62,389.467 1049.95,386.467 1051.5,383C 1048.41,376.367 1049.74,370.701 1055.5,366C 1066.53,359.613 1077.86,358.946 1089.5,364C 1097.81,371.313 1100.97,380.48 1099,391.5C 1095.12,393.757 1093.62,397.09 1094.5,401.5C 1102.15,403.019 1108.82,401.019 1114.5,395.5C 1115.45,396.326 1116.45,396.492 1117.5,396C 1122.75,391.425 1127.25,386.258 1131,380.5C 1134.23,362.933 1137.73,345.433 1141.5,328C 1138.65,318.063 1134.81,308.563 1130,299.5C 1129.61,294.489 1129.78,289.489 1130.5,284.5C 1132.17,284.5 1133.83,284.5 1135.5,284.5C 1135.02,281.315 1135.69,278.481 1137.5,276C 1138.78,275.316 1139.95,275.483 1141,276.5C 1141.33,280.5 1141.67,284.5 1142,288.5C 1142.81,283.562 1144.31,278.895 1146.5,274.5C 1147.17,274.167 1147.83,273.833 1148.5,273.5C 1149.95,275.559 1151.95,276.559 1154.5,276.5C 1155.38,280.134 1156.72,283.634 1158.5,287C 1156.54,293.008 1155.04,299.175 1154,305.5C 1153.28,312.638 1154.78,319.305 1158.5,325.5C 1159.69,326.429 1161.02,326.762 1162.5,326.5C 1162.76,331.352 1164.42,335.685 1167.5,339.5C 1172.84,341.836 1178.18,344.169 1183.5,346.5C 1175.55,365.397 1167.88,384.397 1160.5,403.5C 1176.44,404.304 1183.94,412.971 1183,429.5C 1183.94,430.263 1184.44,431.263 1184.5,432.5C 1183.7,438.596 1181.36,443.93 1177.5,448.5C 1178.17,448.833 1178.83,449.167 1179.5,449.5C 1181.5,448.033 1183.16,446.2 1184.5,444C 1187.38,442.873 1190.38,442.206 1193.5,442C 1197.6,438.837 1201.77,435.67 1206,432.5C 1210.55,415.295 1215.55,398.295 1221,381.5C 1221.87,375.171 1222.7,368.837 1223.5,362.5C 1223.94,352.467 1223.28,342.467 1221.5,332.5 Z M 686.5,351.5 C 687.043,351.56 687.376,351.893 687.5,352.5C 681.562,365.159 675.729,377.826 670,390.5C 666.35,392.046 662.516,392.713 658.5,392.5C 657.5,403.167 656.5,413.833 655.5,424.5C 648.473,423.271 641.806,424.437 635.5,428C 633.951,429.214 632.785,430.714 632,432.5C 631.946,435.861 630.946,438.861 629,441.5C 628.09,432.756 628.424,424.089 630,415.5C 631.793,412.705 633.96,410.205 636.5,408C 645.957,400.878 655.124,393.378 664,385.5C 671.33,374.013 678.83,362.68 686.5,351.5 Z M 329.5,378.5 C 329.557,379.609 329.89,380.609 330.5,381.5C 326.809,381.636 324.975,379.97 325,376.5C 326.33,377.582 327.83,378.249 329.5,378.5 Z M 389.5,468.5 C 386.529,465.246 384.029,461.58 382,457.5C 380.222,451.496 378.055,445.662 375.5,440C 379.956,433.875 384.789,428.042 390,422.5C 396.667,407.167 403.333,391.833 410,376.5C 412.36,390.407 413.693,404.407 414,418.5C 403.766,414.91 395.433,417.577 389,426.5C 387.983,435.435 386.483,444.268 384.5,453C 384.677,458.695 386.343,463.862 389.5,468.5 Z M 331.5,386.5 C 334.402,386.823 336.235,388.156 337,390.5C 335.559,389.74 334.059,389.074 332.5,388.5C 331.702,388.043 331.369,387.376 331.5,386.5 Z M 342.5,404.5 C 341.167,404.167 339.833,403.833 338.5,403.5C 337.71,402.206 336.71,401.039 335.5,400C 339.138,399.485 341.471,400.985 342.5,404.5 Z M 337.5,404.5 C 337.5,404.833 337.5,405.167 337.5,405.5C 334.687,405.77 332.021,406.27 329.5,407C 330.787,405.59 331.954,404.09 333,402.5C 334.33,403.582 335.83,404.249 337.5,404.5 Z M 886.5,404.5 C 887.396,405.506 888.062,405.506 888.5,404.5C 893.1,415.449 897.433,426.616 901.5,438C 895.642,444.879 890.142,452.045 885,459.5C 883.817,463.768 882.817,468.101 882,472.5C 878.974,474.237 875.641,475.237 872,475.5C 869.314,474.489 867.814,472.489 867.5,469.5C 869.261,466.004 869.761,462.337 869,458.5C 865.643,454.644 862.476,450.644 859.5,446.5C 863.324,442.507 866.991,438.34 870.5,434C 874.697,435.236 878.197,434.07 881,430.5C 881.342,428.182 880.842,426.015 879.5,424C 880.362,421.266 881.195,421.099 882,423.5C 883,422.5 884,421.5 885,420.5C 886.339,415.264 886.839,409.93 886.5,404.5 Z M 782.5,408.5 C 787.267,419.279 791.767,430.279 796,441.5C 796.543,444.868 796.376,448.201 795.5,451.5C 791.306,451.73 787.806,453.397 785,456.5C 785.519,447.198 785.519,437.865 785,428.5C 783.744,421.879 782.911,415.212 782.5,408.5 Z M 994.5,416.5 C 996.109,419.53 998.109,422.363 1000.5,425C 995.543,426.546 990.543,427.546 985.5,428C 985.167,427.667 984.833,427.333 984.5,427C 988.037,423.631 991.371,420.131 994.5,416.5 Z M 1140.5,425.5 C 1142.12,426.841 1143.12,428.674 1143.5,431C 1142.94,431.725 1142.61,432.558 1142.5,433.5C 1145.24,442.385 1148.57,451.052 1152.5,459.5C 1148.71,462.79 1145.04,466.29 1141.5,470C 1139.98,471.009 1138.31,471.509 1136.5,471.5C 1137.53,456.13 1138.87,440.797 1140.5,425.5 Z M 628.5,448.5 C 629.117,448.611 629.617,448.944 630,449.5C 632.27,454.427 631.936,459.094 629,463.5C 628.501,458.511 628.334,453.511 628.5,448.5 Z M 423.5,454.5 C 426.531,461.245 429.198,468.245 431.5,475.5C 431.167,475.833 430.833,476.167 430.5,476.5C 427.434,473.474 423.767,471.474 419.5,470.5C 418.651,467.19 418.818,463.856 420,460.5C 421.421,458.595 422.588,456.595 423.5,454.5 Z M 247.5,457.5 C 249.303,460.39 250.636,463.557 251.5,467C 249.842,467.725 249.342,468.892 250,470.5C 253.337,475.991 256.837,481.325 260.5,486.5C 257.404,488.421 254.07,489.754 250.5,490.5C 249.83,479.468 248.83,468.468 247.5,457.5 Z M 1018.5,463.5 C 1016.77,469.18 1014.94,474.846 1013,480.5C 1012.83,486.528 1012.33,492.528 1011.5,498.5C 1010.24,496.709 1009.57,494.709 1009.5,492.5C 1010.17,489.5 1010.83,486.5 1011.5,483.5C 1011.6,477.536 1011.27,471.536 1010.5,465.5C 1013.01,464.205 1015.68,463.539 1018.5,463.5 Z M 781.5,481.5 C 782.117,481.611 782.617,481.944 783,482.5C 783.833,485.833 784.667,489.167 785.5,492.5C 784.589,495.082 782.923,497.082 780.5,498.5C 779.912,492.84 780.245,487.173 781.5,481.5 Z M 968.5,483.5 C 969.14,490.723 970.474,498.056 972.5,505.5C 968.616,505.976 965.283,504.976 962.5,502.5C 962.172,495.493 964.172,489.16 968.5,483.5 Z"/></g>
<g><path style="opacity:0.996" fill="#000000" d="M 1294.5,323.5 C 1294.5,324.5 1294.5,325.5 1294.5,326.5C 1286.95,326.488 1279.28,326.655 1271.5,327C 1270.51,330.759 1269.68,334.593 1269,338.5C 1268.65,340.18 1267.65,341.18 1266,341.5C 1257.84,337.724 1249.34,335.057 1240.5,333.5C 1234.25,331.472 1227.91,331.138 1221.5,332.5C 1218.98,332.872 1216.98,332.039 1215.5,330C 1217.08,325.329 1217.74,320.496 1217.5,315.5C 1216.04,315.567 1214.71,315.234 1213.5,314.5C 1212.83,314.167 1212.17,313.833 1211.5,313.5C 1206.17,312.004 1201.17,309.837 1196.5,307C 1197.17,306.333 1197.83,305.667 1198.5,305C 1214.68,303.56 1230.84,302.06 1247,300.5C 1263.03,307.765 1278.86,315.432 1294.5,323.5 Z"/></g>
<g><path style="opacity:0.954" fill="#096b44" d="M 1211.5,313.5 C 1212.17,313.833 1212.83,314.167 1213.5,314.5C 1211.82,324.757 1209.82,334.923 1207.5,345C 1208.89,352.855 1207.72,360.355 1204,367.5C 1203.29,366.619 1202.46,365.953 1201.5,365.5C 1200.83,364.167 1199.83,363.167 1198.5,362.5C 1199.26,355.986 1201.42,349.986 1205,344.5C 1206.96,334.078 1209.12,323.744 1211.5,313.5 Z"/></g>
<g><path style="opacity:0.146" fill="#bea89d" d="M 550.5,340.5 C 551.167,340.5 551.5,340.833 551.5,341.5C 549.591,342.679 549.258,342.346 550.5,340.5 Z"/></g>
<g><path style="opacity:0.234" fill="#bea89d" d="M 1198.5,362.5 C 1199.83,363.167 1200.83,364.167 1201.5,365.5C 1200.88,365.611 1200.38,365.944 1200,366.5C 1199.36,365.354 1198.52,364.354 1197.5,363.5C 1197.62,362.893 1197.96,362.56 1198.5,362.5 Z"/></g>
<g><path style="opacity:0.514" fill="#bea89d" d="M 330.5,377.5 C 331.931,378.78 332.598,380.447 332.5,382.5C 331.508,382.672 330.842,382.338 330.5,381.5C 329.89,380.609 329.557,379.609 329.5,378.5C 329.5,377.833 329.833,377.5 330.5,377.5 Z"/></g>
<g><path style="opacity:0.14" fill="#bea89d" d="M 120.5,393.5 C 119.508,393.672 118.842,393.338 118.5,392.5C 119.301,390.207 119.968,390.54 120.5,393.5 Z"/></g>
<g><path style="opacity:0.344" fill="#bea89d" d="M 123.5,400.5 C 121.787,399.365 121.12,397.698 121.5,395.5C 122.117,395.389 122.617,395.056 123,394.5C 123.5,396 124,397.5 124.5,399C 124.43,399.765 124.097,400.265 123.5,400.5 Z"/></g>
<g><path style="opacity:0.227" fill="#bea89d" d="M 350.5,395.5 C 352.424,395.711 352.757,396.377 351.5,397.5C 351.167,396.833 350.833,396.167 350.5,395.5 Z"/></g>
<g><path style="opacity:0.478" fill="#bea89d" d="M 338.5,403.5 C 339.833,403.833 341.167,404.167 342.5,404.5C 342.672,405.492 342.338,406.158 341.5,406.5C 340.292,405.766 338.959,405.433 337.5,405.5C 337.5,405.167 337.5,404.833 337.5,404.5C 337.5,403.833 337.833,403.5 338.5,403.5 Z"/></g>
<g><path style="opacity:0.293" fill="#bea89d" d="M 886.5,404.5 C 886.842,403.662 887.508,403.328 888.5,403.5C 888.5,403.833 888.5,404.167 888.5,404.5C 888.062,405.506 887.396,405.506 886.5,404.5 Z"/></g>
<g><path style="opacity:0.369" fill="#bea89d" d="M 345.5,404.5 C 346.909,409.286 346.242,409.62 343.5,405.5C 344.167,405.167 344.833,404.833 345.5,404.5 Z"/></g>
</svg>
